<?xml version="1.0" encoding="UTF-8"?>
<svg id="Capa_1" data-name="Capa 1" xmlns="http://www.w3.org/2000/svg" viewBox="0 0 50 50">
  <defs>
    <style>
      .cls-1 {
        fill: #ef11b3;
      }
    </style>
  </defs>
  <path class="cls-1" d="M22.79,41.06v1.86c0,.62-.02,1.24-.07,1.86v.27c0,.58-.04,1.14-.13,1.69-.09,.55-.35,1.05-.8,1.49-.53,.53-1.15,.82-1.86,.86-.71,.04-1.42,.04-2.12,0l-.93,.4-1,.46c-.18,.09-.31,.04-.4-.13-.09-.18-.04-.31,.13-.4l.93-.46h-.13l-.93,.4-1,.46c-.18,.09-.31,.04-.4-.13-.09-.18-.04-.31,.13-.4l.86-.46h-.13l-.86,.46-1,.46c-.18,.09-.31,.04-.4-.13-.04-.09-.04-.18,0-.27l-.8,.33c-.18,.09-.31,.04-.4-.13-.04-.18,.02-.31,.2-.4l1-.46h-.33l-.86,.4-1.13,.46c-.18,.09-.31,.04-.4-.13,0-.04-.02-.07-.07-.07l-.66,.27c-.18,.09-.31,.04-.4-.13v-.07l-.93,.33c-.22,.09-.35,.04-.4-.13-.09-.18-.04-.31,.13-.4l.73-.27-1,.27-.93,.46c-.18,.09-.31,.04-.4-.13v-.07l-1,.33c-.18,.09-.31,.04-.4-.13-.04-.13-.02-.24,.07-.33l-1,.33c-.22,.09-.35,.04-.4-.13v-.13l-.53,.27c-.09,.04-.18,.04-.27,0-.18,.09-.31,.04-.4-.13-.04-.18,.02-.31,.2-.4l1.19-.46v-.07l.66-.2,.46-.2,.4-.2s-.11-.11-.2-.2h-.33l-.93,.53-1.06,.33-1.06,.4c-.18,.09-.31,.04-.4-.13-.09-.18-.04-.31,.13-.4l1.13-.46h.07l.93-.27,.93-.53h.07l.13-.07c-.09-.27-.24-.44-.46-.53l-1.13,.53-1.13,.4-1.13,.46c-.18,.09-.31,.04-.4-.13-.09-.18-.04-.31,.13-.4l1.13-.53h.07l1.13-.33,1.06-.53s.15-.04,.33-.13c-.04-.18-.07-.38-.07-.6h-.07l-1.13,.33-1.13,.46-1.19,.46c-.18,.04-.31-.02-.4-.2-.04-.18,.02-.31,.2-.4l1.13-.4,1.19-.53,1.33-.4c0-.13,.02-.33,.07-.6v-.07h-.07l-1.06,.33-1.13,.4-1.06,.4c-.18,.09-.31,.04-.4-.13-.09-.18-.02-.31,.2-.4l1-.46h.07l1.13-.4,1.33-.4v-.8l-1,.46-.93,.4-1.06,.46c-.18,.04-.31-.02-.4-.2-.09-.18-.02-.31,.2-.4l1-.4,.93-.4,1-.46v-.07s.13-.02,.27-.07c0-.31-.02-.53-.07-.66l-1.13,.33-1.06,.4-1,.4c-.18,.09-.31,.04-.4-.13-.04-.22,.02-.35,.2-.4l.93-.4,1.13-.46,1.33-.33v-.46l-1,.33-1,.46h-.07l-1.06,.33c-.22,.04-.35-.04-.4-.27-.04-.18,.02-.29,.2-.33l1.06-.33,1.06-.4,1.26-.46v-.8l-.93,.27-1,.27-1.19,.53c-.18,.09-.31,.04-.4-.13-.09-.22-.02-.35,.2-.4l1.13-.53h.07l1-.33,1.13-.33v-.4l-.86,.4-1,.53-1.06,.4c-.18,.09-.31,.04-.4-.13-.09-.18-.02-.31,.2-.4l1-.46,1-.46,1.13-.53v-.73l-.86,.33-1.19,.46-.93,.33c-.18,.04-.31-.02-.4-.2-.04-.18,.02-.31,.2-.4l1-.27,1.13-.46,1.06-.46s.01-.09,.03-.13c.02-.04,.03-.11,.03-.2v-.27l-1.13,.46-1.13,.4-1.06,.27c-.22,.04-.35-.02-.4-.2-.04-.18,.02-.29,.2-.33l1.13-.33,1.06-.33,1.33-.6c0-.18-.01-.33-.03-.46-.02-.13-.06-.27-.1-.4l-1.06,.4-1.13,.46-1.06,.46c-.18,.04-.31-.02-.4-.2-.09-.18-.02-.31,.2-.4l1-.4,1.19-.46,1.06-.46h.07l.27-.07v-.6l-1,.4-1.06,.33-1,.33c-.18,.04-.31-.02-.4-.2-.04-.18,.02-.31,.2-.4l1.06-.27,1-.4,1.06-.4s.09-.02,.13-.07c-.04-.22-.07-.42-.07-.6l-.86,.46-1.06,.53h-.07l-1.06,.33c-.22,.04-.35-.04-.4-.27-.04-.18,.02-.29,.2-.33l1.06-.33,1.06-.46,1-.53,.13-.07v-.66l-1.06,.4-1.06,.4-1,.53c-.18,.09-.31,.04-.4-.13-.09-.18-.04-.31,.13-.4l1-.53,1.13-.46,1.33-.4v-.6l-1.06,.46-.93,.53-1.06,.4c-.18,.09-.31,.04-.4-.13-.09-.18-.02-.31,.2-.4l1-.46,.93-.46h.07l1.26-.6v-.73l-.93,.4-1,.53-1.19,.46c-.18,.04-.31-.02-.4-.2-.04-.18,.02-.31,.2-.4l1.13-.4,1-.53,1-.4v-.07l.2-.07v-.6l-1.06,.53-1,.46v.07l-1,.33c-.18,.09-.31,.04-.4-.13-.04-.22,.02-.35,.2-.4l.93-.4,1-.46,1.06-.53,.27-.13v-.66l-.93,.4-1.06,.33-1.13,.46c-.18,.04-.31-.02-.4-.2-.04-.18,.02-.31,.2-.4l1.13-.4,.07-.07,1-.27,.93-.46,.2-.07v-.07c0-.22-.02-.38-.07-.46l-1.06,.53-1.06,.27-.93,.4c-.18,.09-.31,.02-.4-.2-.04-.18,.02-.29,.2-.33l.93-.4h.07l1-.33,1.26-.6v-.8l-1.13,.46-.93,.46-1.19,.46c-.18,.09-.31,.04-.4-.13-.09-.18-.02-.31,.2-.4l1.13-.46,.93-.46,1.13-.53s.13-.02,.27-.07v-.46l-1.06,.33-.93,.4h-.07l-.93,.33c-.18,.04-.31-.02-.4-.2-.04-.18,.02-.31,.2-.4l.93-.27,.93-.46h.07l1.19-.33v-.8l-.73,.27-.93,.46v.07h-.07l-1,.27c-.18,.09-.31,.02-.4-.2-.04-.18,.02-.29,.2-.33l1-.33,.93-.46h.07l.93-.4v-.66l-.93,.33-1,.33-1.06,.33c-.22,.04-.35-.02-.4-.2-.04-.22,.02-.35,.2-.4l1.13-.27,.93-.33,.93-.4h.2v-.66l-.73,.27-1,.27-1.06,.53c-.18,.09-.31,.04-.4-.13-.09-.18-.04-.31,.13-.4l1.06-.53h.07l1-.33,.93-.33v-.73l-.93,.27-1.13,.33-1.13,.46c-.18,.04-.31-.02-.4-.2-.04-.18,.02-.31,.2-.4l1.13-.4,.07-.07,1.06-.27,1.13-.33s.07-.08,.07-.1v-.56l-.93,.33-1,.4-1.13,.46c-.18,.09-.31,.02-.4-.2-.04-.18,.02-.29,.2-.33l1.06-.46,1.06-.46,1.13-.33v-.66l-1.06,.33-1.13,.33-1.06,.27c-.22,.09-.35,.02-.4-.2-.04-.18,.02-.29,.2-.33l1.13-.33,1.06-.27,1.26-.46c0-.18,.02-.38,.07-.6l-1.06,.46-1.06,.33-1.06,.53c-.18,.09-.31,.04-.4-.13-.09-.18-.04-.31,.13-.4l1.06-.53h.07l1.06-.4,1.26-.53v-.66l-1.19,.53-1,.33-1.06,.33c-.18,.09-.31,.02-.4-.2-.04-.18,.02-.29,.2-.33l1.13-.4,.93-.27,1.39-.6v-.66l-1.19,.46-1.13,.46-1.06,.46c-.18,.04-.31-.02-.4-.2-.09-.18-.02-.31,.2-.4l1-.4,1.19-.46,1.39-.6v-.53l-1.06,.46-1.06,.46s-.07,.04-.07,0l-1.06,.4c-.18,.09-.31,.02-.4-.2-.04-.18,.02-.29,.2-.33l1.06-.4,1.06-.46,1.26-.6v-.6l-.93,.4-1,.53-1,.46c-.18,.09-.31,.04-.4-.13-.09-.13-.04-.27,.13-.4l1-.46,1-.53,1.19-.53v-.93l-1,.33-.93,.33h-.07l-1,.33c-.18,.04-.31-.02-.4-.2-.04-.18,.02-.31,.2-.4l1.06-.27,.93-.4,1.19-.33v-.66l-1,.53-1.13,.33-1.13,.33c-.18,.09-.31,.04-.4-.13-.04-.22,.02-.35,.2-.4l1.19-.4,1.06-.27,.93-.53s.15-.04,.33-.13c.04-.13,.09-.27,.13-.4l-.53,.27-.93,.46-1,.46c-.18,.09-.31,.04-.4-.13-.09-.18-.04-.31,.13-.4l.66-.27c0-.13,.04-.22,.13-.27l1.13-.53,.53-.2,.46-.2s.13-.02,.27-.07c.04-.09,.09-.15,.13-.2,.44-.4,.92-.64,1.43-.73,.51-.09,1.03-.15,1.56-.2h.33c1.11-.04,2.21-.09,3.32-.13,1.11-.04,2.21-.11,3.32-.2C16.44,.13,18.17,.03,19.97,0c1.79-.02,3.53,.01,5.21,.1,1.59,.13,3.39,.26,5.38,.37,1.99,.11,3.69,.54,5.11,1.29,1.55,.89,3.15,1.79,4.81,2.72,1.66,.93,3.13,2.04,4.41,3.32,.97,1.06,1.67,2.38,2.09,3.95,.42,1.57,.67,3.06,.76,4.48,.09,.97,.08,2.08-.03,3.32-.11,1.24-.34,2.43-.7,3.58-.35,1.15-.84,2.1-1.46,2.85-.53,.8-1.12,1.55-1.76,2.26-.64,.71-1.32,1.37-2.02,1.99-.13,.09-.27,.18-.4,.27,.13,.18,.24,.33,.33,.46,.49,.8,.95,1.59,1.39,2.39,.93,1.28,1.66,2.68,2.19,4.18,.53,1.5,1.26,2.88,2.19,4.12l.07,.07v.07c.18,.35,.36,.71,.56,1.06,.2,.35,.39,.71,.56,1.06h.07c.27,.27,.55,.59,.86,.96,.31,.38,.4,.72,.27,1.03-.09,.27-.2,.46-.33,.6-.04,.31-.22,.55-.53,.73-.27,.27-.51,.53-.73,.8-.22,.27-.51,.49-.86,.66-.22,.09-.43,.14-.63,.17-.2,.02-.41,.01-.63-.03h-1.03c-.16,0-.34,.02-.56,.07l-1,.46h-.07l-1.13,.33c-.18,.09-.31,.04-.4-.13v-.2l-.46,.13c-.18,.09-.29,.04-.33-.13-.04-.04-.13-.04-.27,0l-.93,.33c-.18,.09-.31,.04-.4-.13l-.93,.27c-.18,.09-.31,.02-.4-.2,0-.09,.02-.16,.07-.2l-.93,.2c-.18,.09-.29,.02-.33-.2-.04-.13,0-.24,.13-.33h-.33l-.8,.27c-.22,.09-.35,.04-.4-.13v-.07l-.73,.33c-.18,.09-.31,.04-.4-.13v-.2s-.11,.02-.2,.07h-.07l-.46,.07s-.04,.09-.13,.13l-1.13,.4c-.18,.09-.31,.04-.4-.13-.09-.18,.04-.33,.4-.46-.09-.04-.18-.04-.27,0l-1.19,.46c-.18,.09-.29,.04-.33-.13h-.07l-.8,.33c-.18,.09-.31,.04-.4-.13-.09-.18-.04-.31,.13-.4l1.26-.53-.13-.07-1.19,.33-1,.4c-.18,.09-.31,.04-.4-.13-.09-.18-.02-.31,.2-.4l1-.46h.07l.6-.13-.2-.2-.6,.13-.93,.4-1.13,.33c-.18,.09-.31,.04-.4-.13-.04-.22,.02-.35,.2-.4l1.13-.4,.93-.33s.11-.09,.33-.13c-.18-.22-.33-.46-.46-.73l-.8,.33-1.19,.33-1.13,.46c-.18,.09-.31,.04-.4-.13-.09-.18-.02-.31,.2-.4l1.13-.53h.07l1.13-.27,.73-.33c-.09-.22-.2-.46-.33-.73l-.93,.4-1,.4-1.06,.4c-.18,.09-.31,.02-.4-.2-.04-.18,.02-.29,.2-.33l1-.4,1.06-.46,1-.4c-.04-.09-.09-.19-.13-.3-.04-.11-.07-.21-.07-.3l-1,.33-1,.33-1,.46c-.22,.04-.35-.02-.4-.2-.09-.18-.04-.31,.13-.4l1-.4h.07v-.07l1-.27,.93-.4c-.09-.18-.18-.35-.27-.53l-1,.27-1.06,.4-1.13,.33c-.18,.09-.29,.04-.33-.13-.09-.22-.02-.35,.2-.4l1.06-.4,1.13-.33v-.07l.86-.2c-.13-.27-.27-.53-.4-.8l-.86,.4-1.19,.33-.93,.53c-.18,.09-.31,.04-.4-.13-.09-.18-.04-.31,.13-.4l.93-.53h.07l1.19-.4,.86-.4c-.04-.13-.09-.27-.13-.4l-1,.4-1,.33-1.13,.4c-.18,.04-.31-.02-.4-.2-.04-.22,.02-.35,.2-.4l1.19-.4,.93-.27,.93-.4c-.04-.18-.11-.38-.2-.6l-.86,.46-1.06,.4-1.13,.33s-.09,.04-.13,0Zm-4.38,6.37c.18-.04,.31,0,.4,.13,.31,0,.6-.02,.86-.07,.09-.09,.18-.09,.27,0,.31-.09,.55-.22,.73-.4,.27-.27,.41-.57,.43-.93,.02-.35,.03-.69,.03-1v-.46c.04-.75,.07-1.49,.07-2.22v-7.27c0-.18,.02-.35,.07-.53-.18,.04-.29-.02-.33-.2-.09-.18,0-.31,.27-.4-.04-.09-.04-.18,0-.27-.09-.4-.04-.71,.13-.93,.18-.22,.34-.33,.5-.33h.5c.13,.04,.27,.07,.4,.07,.27,.04,.54,.08,.83,.1,.29,.02,.56,.03,.83,.03,.04,0,.11,.02,.2,.07,.09,.04,.13,.09,.13,.13,.18,.18,.29,.39,.33,.63,.04,.24,.11,.48,.2,.7,.62,1.06,1.14,2.17,1.56,3.32,.42,1.15,.85,2.3,1.29,3.45,.09,.04,.15,.11,.2,.2v.13c.09,.31,.2,.6,.33,.86,.04,0,.09,.04,.13,.13,.04,.04,.04,.09,0,.13,.18,.35,.35,.66,.53,.93v.07c.09,.18,.15,.34,.2,.5,.04,.16,.09,.32,.13,.5,.09,0,.15,.07,.2,.2,.04,.09,.02,.18-.07,.27,.09,.27,.18,.49,.27,.66,.13,0,.22,.07,.27,.2,.09,.13,.09,.24,0,.33,.22,.4,.49,.66,.8,.8,.18-.04,.31,.02,.4,.2v.2c.27,.13,.57,.22,.93,.27l.4-.2c.18-.04,.31,.02,.4,.2h.4l.4-.2c.18-.04,.31,.02,.4,.2,.09,0,.2-.01,.33-.03,.13-.02,.31-.08,.53-.17,.13-.04,.24,0,.33,.13,.13,0,.27-.01,.4-.03,.13-.02,.31-.06,.53-.1,.13-.04,.24-.02,.33,.07h.4c.13,0,.29-.02,.46-.07,.13-.04,.24-.02,.33,.07h.43c.15,0,.34-.02,.56-.07h.2c.8,0,1.61-.02,2.46-.07,.84-.04,1.66-.09,2.46-.13h1.79c.35,.09,.6,.09,.73,0,.27-.13,.49-.31,.66-.53,.18-.22,.38-.44,.6-.66-.04-.18-.09-.29-.13-.33,0-.13,.02-.24,.07-.33,0-.04-.02-.09-.07-.13-.13-.09-.27-.2-.4-.33v-.07l-.07-.07c-.18-.35-.36-.72-.56-1.1-.2-.38-.41-.74-.63-1.1-.93-1.24-1.65-2.62-2.16-4.15-.51-1.53-1.25-2.91-2.22-4.15l-.07-.07c-.44-.8-.91-1.61-1.39-2.46-.04-.09-.16-.24-.33-.46-.13-.13-.26-.29-.36-.46-.11-.18-.14-.4-.1-.66,.04-.35,.2-.59,.46-.7,.27-.11,.51-.25,.73-.43,.66-.57,1.29-1.19,1.89-1.86,.6-.66,1.14-1.37,1.63-2.12h.07v-.07c.57-.62,1.01-1.45,1.29-2.49,.29-1.04,.48-2.12,.56-3.25,.09-1.13,.09-2.09,0-2.89-.09-1.19-.3-2.5-.63-3.92-.33-1.42-.92-2.59-1.76-3.52-1.19-1.24-2.6-2.3-4.21-3.19-1.62-.88-3.18-1.75-4.68-2.59-.84-.44-1.85-.75-3.02-.93-1.17-.18-2.36-.29-3.55-.33-1.19-.04-2.28-.11-3.25-.2-1.64-.09-3.33-.12-5.08-.1-1.75,.02-3.44,.12-5.08,.3-1.11,.09-2.22,.16-3.35,.2-1.13,.04-2.25,.09-3.35,.13h-.4c-.35,0-.7,.02-1.03,.07-.33,.04-.59,.18-.76,.4-.22,.22-.35,.5-.4,.83-.04,.33-.04,.65,0,.96v1.39c0,1.11,.01,2.22,.03,3.35,.02,1.13,.01,2.27-.03,3.42v1.92c-.04,.53-.07,1.06-.07,1.59v1.59c0,1.02,.01,2.02,.03,3.02,.02,1,.05,2,.1,3.02v4.25c0,.4-.01,.79-.03,1.16-.02,.38-.03,.74-.03,1.1s.01,.7,.03,1.03c.02,.33,.03,.65,.03,.96v3.12c-.04,1.28-.08,2.58-.1,3.88-.02,1.31-.01,2.6,.03,3.88v.93c-.04,.27-.07,.54-.07,.83s.02,.56,.07,.83c.04,.18,.1,.34,.17,.5,.07,.16,.14,.3,.23,.43l.46,.2c1.77,.04,3.54,.1,5.31,.17,1.77,.07,3.54,.19,5.31,.36h.2c.13,0,.29,.02,.46,.07,.22,0,.44-.02,.66-.07ZM22.85,13.32c.18,0,.29,.09,.33,.27h.33l.33-.2c.18-.09,.33-.07,.46,.07v.07h.2l.66-.2c.13,0,.22,.02,.27,.07,.31,0,.62-.02,.93-.07,.09,0,.18,.02,.27,.07,.71,0,1.3,.18,1.79,.53,.71,.49,1.18,1.18,1.43,2.09,.24,.91,.23,1.82-.03,2.72-.27,.91-.75,1.6-1.46,2.09-.27,.18-.55,.3-.86,.37-.31,.07-.62,.12-.93,.17h-1.19c-.4,.09-.69,.12-.86,.1-.18-.02-.31-.06-.4-.1-.13,0-.27-.01-.4-.03-.13-.02-.33-.01-.6,.03l-1.46,.46c-.13,.04-.29,.02-.46-.07-.13-.13-.2-.27-.2-.4v-.5c0-.15-.02-.32-.07-.5v-4.85c0-.13-.02-.31-.07-.53-.04-.18-.06-.35-.03-.53,.02-.18,.12-.35,.3-.53,.18-.22,.4-.33,.66-.33h.07l.4-.2h.13l.46-.07Zm-.13,6.51c.27-.04,.55-.1,.86-.17,.31-.07,.6-.03,.86,.1,.04,0,.11,.04,.2,.13h.07s.15-.02,.33-.07l.13-.07h.46c.31,.04,.53,.04,.66,0l.53-.27,1.06-.53h.13c.13-.31,.24-.64,.33-1l-.93,.4-.93,.53h-.07l-1.13,.33c-.18,.09-.31,.04-.4-.13-.04-.22,.02-.35,.2-.4l1.13-.4,.93-.46h.07l1-.46s.11-.02,.2-.07c0-.4-.07-.75-.2-1.06l-1.06,.4-1.06,.53-1,.53c-.18,.09-.31,.04-.4-.13-.09-.18-.04-.31,.13-.4l1-.53,1.13-.53,1-.46c-.13-.18-.29-.31-.46-.4-.13-.09-.29-.15-.46-.2l-.73,.33-1,.53-1.19,.46c-.18,.04-.31-.02-.4-.2-.04-.18,.02-.31,.2-.4l1.13-.4,.86-.46c-.18,.04-.35,.08-.53,.1-.18,.02-.35,.03-.53,.03-.35,.04-.62,.07-.8,.07-.49,.04-.91,.09-1.26,.13l-.27,.07v.2c0,.75,.01,1.48,.03,2.19,.02,.71,.08,1.42,.17,2.12Zm.07,14.47s.07,.11,.07,.2c0,.18,.09,.29,.27,.33l.6-.27c-.04-.13-.07-.22-.07-.27h-.86Zm0,1.19v1.06l.66-.33,.8-.4c-.09-.22-.2-.44-.33-.66l-.66,.2-.46,.13Zm0,1.73v.2l1-.27,1-.33c-.09-.13-.16-.29-.2-.46l-.86,.4-.93,.46Zm0,.86c0,.13,.01,.28,.03,.43,.02,.16,.08,.28,.17,.37l1-.46,1.26-.4c-.09-.27-.18-.46-.27-.6l-1.06,.27-1.13,.4Zm0,1.53v.93l1.06-.4,1.06-.33,.86-.46c-.04-.13-.1-.27-.17-.4-.07-.13-.14-.24-.23-.33l-1.19,.4-.93,.4-.46,.2Z"/>
</svg>