<?xml version="1.0" encoding="utf-8"?>
<!-- Generator: Adobe Illustrator 26.5.0, SVG Export Plug-In . SVG Version: 6.00 Build 0)  -->
<svg version="1.1" id="Capa_1" xmlns="http://www.w3.org/2000/svg" xmlns:xlink="http://www.w3.org/1999/xlink" x="0px" y="0px"
	 viewBox="0 0 21.9 22.9" style="enable-background:new 0 0 21.9 22.9;" xml:space="preserve">
<style type="text/css">
	.st0{fill-rule:evenodd;clip-rule:evenodd;fill:#FEED01;}
	.st1{fill-rule:evenodd;clip-rule:evenodd;fill:#101010;}
</style>
<path class="st0" d="M0.5,11.6C0.5,5.8,5.2,1.1,11,1.1s10.5,4.7,10.5,10.5S16.8,22.1,11,22.1S0.5,17.4,0.5,11.6z"/>
<path class="st1" d="M5.7,13.9c0-0.3,0.2-0.5,0.5-0.5h9.5c0.3,0,0.5,0.2,0.5,0.5c0,1.6-0.6,3-1.6,3.9s-2.3,1.4-3.7,1.4
	s-2.7-0.5-3.7-1.4C6.3,16.9,5.7,15.6,5.7,13.9z M6.7,14.4c0.1,1.1,0.6,2,1.2,2.6c0.8,0.7,1.8,1.1,3,1.1s2.3-0.4,3-1.1
	c0.7-0.6,1.1-1.5,1.2-2.6H6.7z"/>
<path class="st1" d="M13.6,8.9c0.4-0.4,1-0.6,1.7-0.6s1.3,0.2,1.7,0.6c0.4,0.4,0.7,1,0.7,1.7h1c0-1-0.4-1.9-1-2.5s-1.5-0.9-2.4-0.9
	s-1.7,0.3-2.4,0.9c-0.6,0.6-1,1.4-1,2.5h1C12.9,9.8,13.2,9.2,13.6,8.9z"/>
<path class="st1" d="M5,8.9c0.4-0.4,1-0.6,1.7-0.6S8,8.5,8.4,8.9C8.8,9.2,9,9.8,9,10.6h1c0-1-0.4-1.9-1-2.5S7.6,7.2,6.7,7.2
	S5,7.5,4.3,8.1c-0.6,0.6-1,1.4-1,2.5h1C4.3,9.8,4.6,9.2,5,8.9z"/>
</svg>
