<?xml version="1.0" encoding="utf-8"?>
<!-- Generator: Adobe Illustrator 26.5.0, SVG Export Plug-In . SVG Version: 6.00 Build 0)  -->
<svg 
	id="Capa_1" xmlns="http://www.w3.org/2000/svg" xmlns:xlink="http://www.w3.org/1999/xlink" x="0px" y="0px"
	 viewBox="0 0 24 22" style="enable-background:new 0 0 24 22;" xml:space="preserve">
<style type="text/css">
	.st0{fill:#FFFFFF;}
</style>
<path class="st0" d="M23.1,18.8l-4.9-4.9c-0.1-0.1-0.1-0.1-0.2-0.1c0.7-1.3,1-2.7,1-4.3C19,4.3,14.7,0,9.5,0S0,4.3,0,9.5
	S4.3,19,9.5,19c2.6,0,5-1.1,6.7-2.8l4.7,4.7c0.3,0.3,0.7,0.4,1.1,0.4s0.8-0.1,1.1-0.4C23.6,20.4,23.6,19.4,23.1,18.8z M9.5,16
	C5.9,16,3,13.1,3,9.5S5.9,3,9.5,3S16,5.9,16,9.5S13.1,16,9.5,16z"/>
</svg>
