<svg width="28" height="28" viewBox="0 0 28 28" fill="none" xmlns="http://www.w3.org/2000/svg">
<circle cx="14" cy="14" r="14" fill="#D9D9D9"/>
<path d="M12.44 21V10.24H15.56V21H12.44ZM14 8.74C13.4267 8.74 12.96 8.57333 12.6 8.24C12.24 7.90667 12.06 7.49333 12.06 7C12.06 6.50667 12.24 6.09333 12.6 5.76C12.96 5.42667 13.4267 5.26 14 5.26C14.5733 5.26 15.04 5.42 15.4 5.74C15.76 6.04667 15.94 6.44667 15.94 6.94C15.94 7.46 15.76 7.89333 15.4 8.24C15.0533 8.57333 14.5867 8.74 14 8.74Z" fill="black"/>
</svg>
