<?xml version="1.0" encoding="utf-8"?>
<!-- Generator: Adobe Illustrator 26.5.0, SVG Export Plug-In . SVG Version: 6.00 Build 0)  -->
<svg version="1.1" id="Capa_1" xmlns="http://www.w3.org/2000/svg" xmlns:xlink="http://www.w3.org/1999/xlink" x="0px" y="0px"
	 viewBox="0 0 25 25.2" style="enable-background:new 0 0 25 25.2;" xml:space="preserve">
<style type="text/css">
	.st0{fill-rule:evenodd;clip-rule:evenodd;fill:#F612AC;}
</style>
<g>
	<path class="st0" d="M5.5,8.5c0.5-3.5,1-8,7-8s6.5,4,7,8c0.3,2.4,0.9,7.3,1.7,14.6c0,0.3-0.2,0.5-0.4,0.5c-0.2,0-0.4-0.1-0.5-0.2
		l-0.8-1.5c-0.1-0.2-0.4-0.3-0.7-0.2l-0.1,0.1l-2.5,2.8c-0.2,0.2-0.5,0.2-0.7,0l0,0l-2.6-2.9c-0.2-0.2-0.5-0.2-0.7,0l0,0l-2.6,2.9
		c-0.2,0.2-0.5,0.2-0.7,0l0,0l-2.5-2.8c-0.2-0.2-0.5-0.2-0.7,0l-0.1,0.1l-0.8,1.5c-0.1,0.2-0.4,0.3-0.6,0.2C4,23.5,3.9,23.3,4,23.1
		C4.6,15.5,5.2,10.6,5.5,8.5z M10,6.5C9.2,6.5,8.5,7.2,8.5,8v2c0,0.8,0.7,1.5,1.5,1.5s1.5-0.7,1.5-1.5V8C11.5,7.2,10.8,6.5,10,6.5z
		 M15,6.5c-0.8,0-1.5,0.7-1.5,1.5v2c0,0.8,0.7,1.5,1.5,1.5s1.5-0.7,1.5-1.5V8C16.5,7.2,15.8,6.5,15,6.5z M12.5,18.5
		c1.4,0,2.5-1.1,2.5-2.5s-1.1-2.5-2.5-2.5S10,14.6,10,16S11.1,18.5,12.5,18.5z M3.8,14.2c-0.8-0.3-1.5-1-2.3-1.9
		c-1.7-2.1-1-4.8,0.5-3.4c0.7,0.6,1.5,1,2.3,1.2C4.2,11.2,4,12.6,3.8,14.2z M20.7,10.1c0.9-0.2,1.6-0.6,2.3-1.3
		c1.5-1.4,2.2,1.4,0.5,3.4c-0.8,0.9-1.5,1.5-2.3,1.9C21,12.6,20.8,11.3,20.7,10.1z"/>
</g>
</svg>
