<?xml version="1.0" encoding="utf-8"?>
<!-- Generator: Adobe Illustrator 26.5.0, SVG Export Plug-In . SVG Version: 6.00 Build 0)  -->
<svg version="1.1" id="Capa_1" xmlns="http://www.w3.org/2000/svg" xmlns:xlink="http://www.w3.org/1999/xlink" x="0px" y="0px"
	 viewBox="0 0 430.9 468" style="enable-background:new 0 0 430.9 468;" xml:space="preserve">
<style type="text/css">
	.st0{fill:#F612AC;}
	.st1{fill:#08B7BA;}
</style>
<path class="st0" d="M407.5,314.1c-10.5,14.6-23.4,35.1-23.4,43.7c0,12.3,10.5,22.4,23.4,22.4s23.4-10,23.4-22.4
	C430.9,349.2,418,328.7,407.5,314.1z"/>
<path class="st0" d="M325.6,396.8c-10.5,14.6-23.4,35.1-23.4,43.7c0,12.3,10.5,22.4,23.4,22.4s23.4-10,23.4-22.4
	C349,432,336.2,411.4,325.6,396.8z"/>
<path class="st0" d="M262.9,184.7c14,0,25.5,11.4,25.5,25.5v94.2c-0.3,12.2,10.5,23,22.7,22.7c12.2,0.3,23-10.5,22.7-22.7l0-278
	L201.7,183.7V241c0,9.9,8,17.9,17.9,17.9c9.9,0,17.9-8,17.9-17.9l0-30.9C237.5,196.1,248.9,184.7,262.9,184.7z"/>
<g>
	<path class="st1" d="M143.7,252.8l91.4,76.7l40.9-48.7v-70.6c0-7.2-5.9-13.1-13.1-13.1c-7.2,0-13.1,5.9-13.1,13.1l0,30.9
		c0,16.7-13.6,30.3-30.3,30.3s-30.3-13.6-30.3-30.3v-42.6L143.7,252.8z"/>
	<path class="st1" d="M135.8,262.3L3.1,420.3c-4.8,5.5-4,14.5,1.7,19.1l30.3,25.4c5.7,4.8,14.3,4.1,19.1-1.7l53.3-63.6
		c8.5-10.1,15.2-21.4,20-33.6c5.3-13.5,12.7-25.9,22.1-37l27.1-32.4L135.8,262.3z M51,433.8c-4.3,5.1-11.8,5.7-16.9,1.5
		c-5.1-4.3-5.7-11.8-1.5-16.9s11.8-5.7,16.9-1.5S55.3,428.7,51,433.8z"/>
	<path class="st1" d="M346.2,11.5l0,185.6l38.7-46.1c34.4-41,29-102.3-12-136.7L355.9,0L346.2,11.5z"/>
</g>
</svg>
